<?xml version="1.0" encoding="UTF-8"?>
<svg id="Layer_2" data-name="Layer 2" xmlns="http://www.w3.org/2000/svg" viewBox="0 0 100 100">
  <rect x="25.1012857" y="5.0125653" width="50" height="10"/>
  <path d="M25.0953653,44.9986493v9.9958496H15.1012857c.0023804-9.9460449,.0046387-19.892334,0-29.8469238h10V15.1475751H15.1012857v9.8649902H5.1012857c.0094604,20.0068359-.0095215,39.9793701,0,59.986084h.0021973v.013916H15.103483v9.9941406h30V44.9986493H25.0953653Zm10.0081177,40.0080566h-10.0021973v-9.9941406H15.1012857c-.0003052-3.3395996-.0004883-6.6793213,0-10.0180664h9.9981689v-9.9958496h10.0040283v30.0080566Z"/>
  <polygon points="95.1012857 25.0125653 85.1012857 25.0125653 85.1012857 15.1475751 75.1012857 15.1475751 75.1012857 25.1475751 85.1012857 25.1475751 85.1012857 54.9986493 75.103483 54.9986493 75.103483 64.9986493 85.1012857 64.9986493 85.1012857 75.0125653 75.1012857 75.0125653 75.1012857 84.9986493 65.103483 84.9986493 65.103483 54.9986493 75.103483 54.9986493 75.103483 44.9986493 55.103483 44.9986493 55.103483 94.9986493 85.103483 94.9986493 85.103483 85.0125653 95.103483 85.0125653 95.1012857 25.0125653"/>
</svg>