<?xml version="1.0" encoding="UTF-8"?>
<svg id="Layer_2" data-name="Layer 2" xmlns="http://www.w3.org/2000/svg" viewBox="0 0 100 100">
  <rect x="25.1012658" y="5.0126582" width="50" height="10"/>
  <rect x="25.1012658" y="85.0126582" width="50" height="10"/>
  <rect x="15.1012658" y="15.1476716" width="10" height="10"/>
  <rect x="15.1012658" y="75.0126582" width="10" height="10"/>
  <rect x="75.1012658" y="75.0126582" width="10" height="10"/>
  <rect x="75.1012658" y="15.1476716" width="10" height="10"/>
  <rect x="85.1012658" y="25.0126582" width="10" height="50.028481"/>
  <path d="M15.1012658,25.0126582H5.1012658c.0095011,16.6761475-.0095016,33.3238525-.0000005,50H15.1012658c-.0095015-16.6761475,.0095015-33.3238525,0-50Z"/>
  <polygon points="75.05994 45.1643393 55.05994 45.1643393 55.05994 25.170687 45.05994 25.170687 45.05994 45.1643393 25.05994 45.1643393 25.05994 55.1643393 45.05994 55.1643393 45.05994 75.1643393 55.05994 75.1643393 55.05994 55.1643393 75.05994 55.1643393 75.05994 45.1643393"/>
</svg>