<?xml version="1.0" encoding="UTF-8"?>
<svg id="Layer_2" data-name="Layer 2" xmlns="http://www.w3.org/2000/svg" viewBox="0 0 100 100">
  <path d="M65.0941657,65.0243784h20v-10H15.0941657v10h20v20H5.1154059v10H95.0941657v-10h-30v-20Zm-20,20v-20h10v20h-10Z"/>
  <rect x="15.0941657" y="5.0243784" width="70" height="10"/>
  <path d="M15.0914191,15.0050913H5.0914191c.0095215,13.3388062-.0095215,26.6548462,0,39.9936523H15.0914191c-.0095215-13.3388062,.0095215-26.6548462,0-39.9936523Z"/>
  <path d="M85.0969122,15.0307871c.0095215,13.3387451-.0095215,26.6547852,0,39.9935913h10c-.0095215-13.3388062,.0095215-26.6548462,0-39.9935913h-10Z"/>
  <rect x="65.0941657" y="25.0243784" width="10" height="10"/>
</svg>