<?xml version="1.0" encoding="UTF-8"?>
<svg id="Layer_2" data-name="Layer 2" xmlns="http://www.w3.org/2000/svg" viewBox="0 0 100 100">
  <polygon points="35.161171881 15.050632911 15.161171881 15.050632911 15.161171881 85.050632911 35.161171881 85.050632911 35.151711432 75.050632911 25.161171881 75.050632911 25.161171881 25.050632911 35.161171881 25.050632911 35.161171881 15.050632911"/>
  <rect x="35.161171881" y="65.050632911" width="10" height="10"/>
  <rect x="45.161171881" y="55.050632911" width="10" height="10"/>
  <rect x="55.161171881" y="45.050632911" width="10" height="10"/>
  <rect x="45.161171881" y="35.050632911" width="10" height="10"/>
  <rect x="35.161171881" y="25.050632911" width="10" height="10"/>
  <rect x="65.161171881" y="65.089991898" width="10" height="10"/>
  <rect x="55.161171881" y="75.089991898" width="10" height="10"/>
  <rect x="75.161171881" y="55.089991898" width="10" height="10"/>
  <rect x="85.161171881" y="45.089991898" width="10" height="10"/>
  <rect x="75.161171881" y="35.089991898" width="10" height="10"/>
  <rect x="65.161171881" y="25.089991898" width="10" height="10"/>
  <rect x="55.161171881" y="15.089991898" width="10" height="10"/>
</svg>